<?xml version="1.0" encoding="utf-8"?>
<!-- Generator: Adobe Illustrator 23.0.3, SVG Export Plug-In . SVG Version: 6.00 Build 0)  -->
<svg version="1.1" id="Capa_1" xmlns="http://www.w3.org/2000/svg" xmlns:xlink="http://www.w3.org/1999/xlink" x="0px" y="0px"
	 viewBox="0 0 239.5 272.6" style="enable-background:new 0 0 239.5 272.6;" xml:space="preserve">
<style type="text/css">
        .st0{fill:#ffffff;}
</style>
<g>
	<title>Layer 1</title>
	<g id="svg_17">
		<g id="svg_10">
			<path id="svg_15" class="st0" d="M116.1,19c-2.5,1.5-4.7,2.8-4.9,2.9c-0.3,0.2,6.4,10.7,7.7,11.9c0.1,0.1,6.3-12.7,7.1-14.7
				c0.2-0.5-3.6-2.8-4.6-2.8C120.9,16.4,118.5,17.6,116.1,19 M124.2,27.5c-2,4.3-3.7,8-3.8,8.3c-0.1,0.2,3.9,6.3,8.8,13.4
				c4.9,7.1,9.1,13.2,9.3,13.6c0.4,0.5,1.4-1.2,8.1-13.5c4.2-7.8,7.7-14.1,7.6-14.1c0,0-5.5-3.2-12.2-7.1
				c-6.7-3.9-12.6-7.4-13.2-7.7l-1-0.6L124.2,27.5 M84.7,37.3L60.9,51.3v3.2v3.2l15,18.2l15,18.2l1.7-3.6c0.9-2,7-15,13.5-28.9
				c6.5-13.9,11.9-25.3,12-25.3s0.4,0.4,0.7,0.9l0.5,0.9l0.4-1c0.4-0.9,0.3-1.1-0.2-1.9l-0.6-0.9l-0.3,0.9c-0.5,1.4-0.5,1.3-5.1-5.4
				c-2.4-3.5-4.4-6.3-4.6-6.3C108.7,23.4,97.8,29.6,84.7,37.3 M155.6,37.1c-0.3,0.4-3.7,6.8-7.7,14.1c-8.2,15.1-7.7,14.2-8.4,13.2
				l-0.5-0.8l-0.5,0.9c-0.4,0.8-0.4,1,0.1,1.7l0.6,0.9l0.5-0.9c0.6-1.2-0.9-3.2,15.9,21.3c8,11.7,14.8,21.5,15,21.8
				c0.3,0.4,7.4-11.9,11.2-19.5c0.3-0.5,0.3-6.3,0.3-19.6l-0.1-18.9l-12.8-7.5c-7-4.1-12.8-7.5-12.9-7.5
				C156.1,36.3,155.9,36.7,155.6,37.1 M105.7,67c-7.4,15.8-13.5,28.7-13.6,28.7c-0.1,0-0.4-0.3-0.7-0.7L91,94.2l-0.5,0.9
				C90.2,95.6,90,96,89.9,96s-6.5-7.8-14.3-17.3c-7.8-9.5-14.3-17.4-14.5-17.5c-0.2-0.1-0.3,10.4-0.2,30.2l0.1,30.4l6.7,3.9
				c3.7,2.1,6.7,3.9,6.7,3.8c0,0,3.5-7.4,7.6-16.4c8.5-18.3,8-17.3,8.7-16.2l0.5,0.8l0.5-0.9c0.6-1.2-0.2-2,9.5,9.8
				c6.4,7.8,8.6,10.2,8.8,9.9c0.5-0.6,27.8-50.8,27.8-51.2c0-0.3-17.4-25.8-18.1-26.6C119.3,38.4,116.4,44.2,105.7,67 M125.2,92.9
				c-16.1,29.6-14.1,26.1-14.8,25.2l-0.6-0.7l-0.6,0.8l-0.6,0.8l-8.5-10.5c-4.7-5.8-8.6-10.5-8.7-10.5c-0.5-0.1-15.3,32.4-14.9,32.8
				c0.2,0.2,4.4,2.7,9.3,5.5c4.9,2.8,9.2,5.3,9.5,5.6c0.7,0.4,0.9,0.1,6.8-10.6c7.4-13.6,6.5-12.2,7.4-11.4c0.7,0.6,1,0.5,1.5-0.7
				c0.2-0.5-0.4-1.2,12.7,14.8c6.5,8,12,14.5,12.1,14.6c0.1,0,4.8-2.6,10.4-5.8l10.1-5.9l6.6-12.1c7.4-13.5,7.1-13,7.7-12.1l0.5,0.7
				l0.6-0.9l0.6-0.9l3.9,5.7l3.9,5.7l1-0.6l1-0.6l0.1-14c0.1-8.4,0-13.8-0.2-13.6c-0.2,0.2-2.4,4.1-4.9,8.7
				c-4.7,8.6-4.9,8.9-5.6,7.8c-0.4-0.6-0.4-0.6-1,0.2l-0.6,0.8l-1.5-2.1c-0.8-1.2-7.6-11-15.1-21.9c-7.5-10.9-13.7-20-13.8-20.1
				C139.3,67.4,132.9,78.8,125.2,92.9 M165.3,124.2c-3.1,5.6-5.5,10.3-5.5,10.3c0.1,0.1,17.5-9.9,17.9-10.4c0.3-0.3-6-9.8-6.6-10
				C171,114,168.3,118.6,165.3,124.2 M104,131.9c-3.3,6-5.9,11-6,11.2c-0.1,0.5,22.5,13.6,23.4,13.6c0.9,0,12.5-6.6,12.3-7
				c-0.2-0.5-23.3-28.6-23.6-28.6C110,121,107.2,125.9,104,131.9 M104,199.4l-0.1,10.8l-1.4,0.1l-1.4,0.1v-2.7V205h-2.5h-2.5v2.9
				c0,5.2,0.9,6.1,6.4,6.1c6.5,0,6.3,0.6,6.3-14v-11.4h-2.3h-2.3L104,199.4 M115.8,189.3c-1.6,1-1.8,1.9-1.7,7.1
				c0.1,6.1,0.4,6.4,5.1,6.5l3.2,0.1v3.6v3.6h-1.6h-1.7l-0.1-1.9l-0.1-1.9h-2.3h-2.3l-0.1,2.2c-0.2,4.4,1,5.3,6.8,5.3
				c4,0,4.1,0,5.2-1l1.1-1l0.1-4.8c0.2-7-0.1-7.3-5.2-7.7c-2.3-0.2-3.1-0.4-3.1-0.7c-0.5-5.2-0.1-6.5,1.8-6.4l1.4,0.1l0.1,1.9
				l0.1,1.9h2.5h2.5l-0.2-2.6c-0.4-4.7-1-5.1-6.7-5.1C117.5,188.7,116.7,188.8,115.8,189.3 M134.1,189.3c-1.6,1-1.8,1.9-1.7,7.1
				c0.1,6,0.4,6.3,5,6.6l3.1,0.2l0.1,3.6l0.1,3.6h-1.7h-1.7l-0.1-1.9l-0.1-1.9h-2.3h-2.3l-0.1,2.2c-0.2,4.4,1,5.3,6.8,5.3
				c4,0,4.1,0,5.2-1l1.1-1l0.1-4.8c0.2-7-0.5-7.9-5.8-7.9c-2,0-2.5-0.1-2.6-0.5c-0.4-5.4-0.1-6.6,1.8-6.4l1.4,0.1l0.1,1.9l0.1,1.9
				h2.5h2.5v-2.2c0-4.6-1.1-5.5-6.9-5.5C135.8,188.7,135,188.8,134.1,189.3 M54.7,238.5v1.5h1.9h1.9l-0.1-1.4l-0.1-1.4l-1.8-0.1
				l-1.8-0.1V238.5 M70.7,238.5v1.5h1.9h1.9l-0.1-1.4l-0.1-1.4l-1.8-0.1l-1.8-0.1V238.5 M121.6,237.2c-0.1,0.1-0.2,4.4-0.2,9.5v9.3
				h1.7h1.7v-5.3c0-4.9,0.1-5.3,0.6-5.7c1.5-0.8,1.7-0.3,1.7,5.5v5.5h1.8h1.8l0-6.2c0-5.4-0.1-6.2-0.6-6.8c-0.8-0.9-2.9-1.2-4.2-0.6
				l-1,0.5v-3v-3h-1.4C122.5,237,121.7,237.1,121.6,237.2 M24.4,238.9c0,0.6,2.6,15.6,2.9,16.5c0.1,0.5,0.6,0.6,2.3,0.6h2.1l0.9-5.6
				c0.5-3.1,0.9-5.6,1-5.7c0.1-0.1,0.4,2.2,0.9,4.9c1.1,6.9,0.7,6.3,3.2,6.3c2,0,2.1,0,2.3-0.9c0.3-1.4,2.9-16.3,2.9-16.5
				c0-0.1-0.7-0.2-1.6-0.2c-1.9,0-1.7-0.6-2.7,7.2c-0.4,3.2-0.8,5.7-0.9,5.6c-0.1-0.1-2.1-12-2.1-12.6c0-0.1-0.8-0.3-1.8-0.3
				c-1.8,0-1.8,0-2,1.1c-0.1,0.6-0.6,3.6-1.2,6.8c-0.5,3.1-1,5.5-1,5.2c-0.1-1-1.4-11.6-1.5-12.3C27.7,238.1,24.4,237.9,24.4,238.9
				 M109.1,239.7v1.3h1.5h1.5v7.5v7.5h1.8h1.8v-7.5V241h1.5h1.5v-1.3v-1.3h-4.8h-4.8V239.7 M153.7,247.2v8.8h1.7h1.7v-3.7v-3.7h2.2
				h2.2v-1.3V246h-2.2h-2.2v-2.5V241h2.7h2.7v-1.3v-1.3h-4.3h-4.3V247.2 M62.4,240.8c0,0.9-0.2,1.2-0.7,1.3
				c-0.9,0.2-0.8,2.8,0.1,2.6c0.5-0.1,0.6,0.5,0.7,4.9c0.1,6,0.3,6.3,3.5,6.3h1.8v-1.3c0-1.2-0.1-1.3-0.9-1.4l-0.9-0.1V249
				c0-3.1,0.1-4.2,0.4-4.2c0.2,0,0.6-0.1,0.9-0.1c1.1-0.1,0.6-2.7-0.5-2.7c-0.9,0-1-0.1-1-1.2v-1.2h-1.7h-1.7V240.8 M178.4,240.8
				c0,0.9-0.2,1.2-0.7,1.3c-0.9,0.2-0.8,2.8,0.1,2.6c0.5-0.1,0.6,0.5,0.7,4.9c0.1,6,0.3,6.3,3.5,6.3h1.8v-1.3c0-1.2-0.1-1.3-0.9-1.4
				l-0.9-0.1V249c0-3.1,0.1-4.2,0.4-4.2c0.2,0,0.6-0.1,0.9-0.1c1.1-0.1,0.6-2.7-0.5-2.7c-0.9,0-1-0.1-1-1.2v-1.2h-1.7h-1.7V240.8
				 M45.9,242.2c-0.1,0.1-0.2,3.3-0.2,7v6.8h1.7h1.7l0-4.6c0-5.3,0.3-6.2,1.9-6.4c1-0.1,1.1-0.2,1.1-1.6c0-1.7-0.6-2-2.1-0.8
				l-0.9,0.7v-0.7C49.1,242,46.6,241.6,45.9,242.2 M54.9,242.2c-0.1,0.1-0.2,3.3-0.2,7v6.8h1.7h1.7v-7v-7h-1.4
				C55.8,242,55.1,242.1,54.9,242.2 M70.9,242.2c-0.1,0.1-0.2,3.3-0.2,7v6.8h1.7h1.7v-7v-7h-1.4C71.8,242,71.1,242.1,70.9,242.2
				 M78.3,242.2c-0.1,0.1-0.2,3.3-0.2,7v6.8h1.7h1.7v-5.3c0-4.9,0-5.3,0.6-5.7c1.5-0.8,1.7-0.3,1.7,5.5v5.5h1.8h1.8l0-6.2
				c0-5.4-0.1-6.2-0.6-6.8c-0.8-0.9-2.9-1.2-4.2-0.6c-0.9,0.4-1,0.4-1,0C81.4,242,78.7,241.8,78.3,242.2 M92.8,242.2
				c-1.9,0.4-2.8,11.1-1,12.8c0.8,0.8,3.9,1,4.6,0.3c0.3-0.3,0.4-0.2,0.3,0.8l-0.1,1.2l-2.6,0.1l-2.6,0.1v1.3v1.3h2.9
				c5.8,0,5.8,0.1,5.6-10.2l-0.1-7.7l-1.6-0.1c-1.2-0.1-1.6,0-1.6,0.4c0,0.4-0.1,0.4-0.9,0C94.9,242,94.3,242,92.8,242.2
				 M136.3,242.3c-1.7,0.6-1.9,1-1.9,6.8c0,6.8,0.1,6.9,4.6,6.9c3.6,0,5.8-1.9,4.5-4c-0.5-0.8-3.2-0.4-3.2,0.5
				c0,0.8-0.2,0.9-1.5,0.9c-0.3,0-0.6,0-0.8,0c-0.2,0-0.3-0.8-0.3-1.7V250h3h3l-0.1-3.2c-0.2-4.1-0.5-4.6-4-4.7
				C138.3,242.1,136.8,242.2,136.3,242.3 M165.3,242.2c-0.1,0.1-0.2,2.9-0.2,6.1c0,7.8-0.1,7.6,5.2,7.6l3.8,0v-7v-7l-1.6,0.1
				l-1.6,0.1l-0.1,5.6l-0.1,5.6h-1.2h-1.2v-5.7V242h-1.4C166.2,242,165.4,242.1,165.3,242.2 M186.9,242.2c-0.1,0.1-0.2,2.9-0.2,6.1
				c0,7.8-0.1,7.6,5.2,7.6l3.8,0v-7v-7l-1.6,0.1l-1.6,0.1l-0.1,5.6l-0.1,5.6h-1.2h-1.2v-5.7V242h-1.4
				C187.8,242,187.1,242.1,186.9,242.2 M199.9,242.2c-0.1,0.1-0.2,3.3-0.2,7v6.8h1.7h1.7l0-4.6c0-5.3,0.3-6.2,1.9-6.4
				c1-0.1,1.1-0.2,1.1-1.6c0-1.7-0.6-2-2.1-0.8l-0.9,0.7v-0.7C203.1,242,200.6,241.6,199.9,242.2 M210.6,242.3
				c-1.7,0.6-1.9,1-1.9,6.8c0,6.8,0.1,6.9,4.6,6.9c3.6,0,5.8-1.9,4.5-4c-0.5-0.8-3.2-0.4-3.2,0.5c0,0.8-0.2,0.9-1.5,0.9
				c-0.3,0-0.6,0-0.8,0c-0.2,0-0.3-0.8-0.3-1.7V250h3h3l-0.1-3.2c-0.2-4.1-0.5-4.6-4-4.7C212.7,242.1,211.1,242.2,210.6,242.3
				 M96.2,245.1c0.5,0.4,0.6,0.9,0.5,4.1l-0.1,3.7l-1.1,0.1l-1.1,0.1v-4c0-3.8,0.1-4.2,1-4.4C95.5,244.7,95.9,244.9,96.2,245.1
				 M140.3,246.4l0.1,1.6h-1.4h-1.4v-1.7v-1.7l1.3,0.1C140.2,244.8,140.2,244.8,140.3,246.4 M214.7,246.4l0.1,1.6h-1.4h-1.4v-1.7
				v-1.7l1.3,0.1C214.5,244.8,214.6,244.8,214.7,246.4"/>
		</g>
	</g>
</g>
</svg>
