<?xml version="1.0" encoding="utf-8"?>
<!-- Generator: Adobe Illustrator 23.0.3, SVG Export Plug-In . SVG Version: 6.00 Build 0)  -->
<svg version="1.1" id="Capa_1" xmlns="http://www.w3.org/2000/svg" xmlns:xlink="http://www.w3.org/1999/xlink" x="0px" y="0px"
	 viewBox="0 0 169 170.9" style="enable-background:new 0 0 169 170.9;" xml:space="preserve">
<style type="text/css">
	.st0{fill:#ffffff;}
</style>
<title>Layer 1</title>
<path id="svg_15" class="st0" d="M79.1,19c-2.5,1.5-4.7,2.8-4.9,2.9c-0.3,0.2,6.4,10.7,7.7,11.9c0.1,0.1,6.3-12.7,7.1-14.7
	c0.2-0.5-3.6-2.8-4.6-2.8C83.9,16.4,81.5,17.6,79.1,19 M87.2,27.5c-2,4.3-3.7,8-3.8,8.3c-0.1,0.2,3.9,6.3,8.8,13.4
	c4.9,7.1,9.1,13.2,9.3,13.6c0.4,0.5,1.4-1.2,8.1-13.5c4.2-7.8,7.7-14.1,7.6-14.1c0,0-5.5-3.2-12.2-7.1s-12.6-7.4-13.2-7.7l-1-0.6
	L87.2,27.5 M47.7,37.3l-23.8,14v3.2v3.2l15,18.2l15,18.2l1.7-3.6c0.9-2,7-15,13.5-28.9s11.9-25.3,12-25.3s0.4,0.4,0.7,0.9l0.5,0.9
	l0.4-1c0.4-0.9,0.3-1.1-0.2-1.9l-0.6-0.9l-0.3,0.9c-0.5,1.4-0.5,1.3-5.1-5.4c-2.4-3.5-4.4-6.3-4.6-6.3
	C71.7,23.4,60.8,29.6,47.7,37.3 M118.6,37.1c-0.3,0.4-3.7,6.8-7.7,14.1c-8.2,15.1-7.7,14.2-8.4,13.2l-0.5-0.8l-0.5,0.9
	c-0.4,0.8-0.4,1,0.1,1.7l0.6,0.9l0.5-0.9c0.6-1.2-0.9-3.2,15.9,21.3c8,11.7,14.8,21.5,15,21.8c0.3,0.4,7.4-11.9,11.2-19.5
	c0.3-0.5,0.3-6.3,0.3-19.6L145,51.3l-12.8-7.5c-7-4.1-12.8-7.5-12.9-7.5C119.1,36.3,118.9,36.7,118.6,37.1 M68.7,67
	c-7.4,15.8-13.5,28.7-13.6,28.7s-0.4-0.3-0.7-0.7L54,94.2l-0.5,0.9C53.2,95.6,53,96,52.9,96s-6.5-7.8-14.3-17.3S24.3,61.3,24.1,61.2
	s-0.3,10.4-0.2,30.2l0.1,30.4l6.7,3.9c3.7,2.1,6.7,3.9,6.7,3.8c0,0,3.5-7.4,7.6-16.4c8.5-18.3,8-17.3,8.7-16.2l0.5,0.8l0.5-0.9
	c0.6-1.2-0.2-2,9.5,9.8c6.4,7.8,8.6,10.2,8.8,9.9c0.5-0.6,27.8-50.8,27.8-51.2c0-0.3-17.4-25.8-18.1-26.6
	C82.3,38.4,79.4,44.2,68.7,67 M88.2,92.9c-16.1,29.6-14.1,26.1-14.8,25.2l-0.6-0.7l-0.6,0.8l-0.6,0.8l-8.5-10.5
	c-4.7-5.8-8.6-10.5-8.7-10.5c-0.5-0.1-15.3,32.4-14.9,32.8c0.2,0.2,4.4,2.7,9.3,5.5s9.2,5.3,9.5,5.6c0.7,0.4,0.9,0.1,6.8-10.6
	c7.4-13.6,6.5-12.2,7.4-11.4c0.7,0.6,1,0.5,1.5-0.7c0.2-0.5-0.4-1.2,12.7,14.8c6.5,8,12,14.5,12.1,14.6c0.1,0,4.8-2.6,10.4-5.8
	l10.1-5.9l6.6-12.1c7.4-13.5,7.1-13,7.7-12.1l0.5,0.7l0.6-0.9l0.6-0.9l3.9,5.7l3.9,5.7l1-0.6l1-0.6l0.1-14c0.1-8.4,0-13.8-0.2-13.6
	c-0.2,0.2-2.4,4.1-4.9,8.7c-4.7,8.6-4.9,8.9-5.6,7.8c-0.4-0.6-0.4-0.6-1,0.2l-0.6,0.8l-1.5-2.1c-0.8-1.2-7.6-11-15.1-21.9
	s-13.7-20-13.8-20.1C102.3,67.4,95.9,78.8,88.2,92.9 M128.3,124.2c-3.1,5.6-5.5,10.3-5.5,10.3c0.1,0.1,17.5-9.9,17.9-10.4
	c0.3-0.3-6-9.8-6.6-10C134,114,131.3,118.6,128.3,124.2 M67,131.9c-3.3,6-5.9,11-6,11.2c-0.1,0.5,22.5,13.6,23.4,13.6
	s12.5-6.6,12.3-7c-0.2-0.5-23.3-28.6-23.6-28.6C73,121,70.2,125.9,67,131.9"/>
</svg>
